<svg width="1003" height="798" viewBox="0 0 1003 798" fill="none" xmlns="http://www.w3.org/2000/svg">
<path d="M0.5 72H1002.5" stroke="black" stroke-width="18"/>
<path d="M257 12.5C290.576 12.5 317.5 39.301 317.5 72C317.5 104.699 290.576 131.5 257 131.5C223.424 131.5 196.5 104.699 196.5 72C196.5 39.301 223.424 12.5 257 12.5Z" fill="white" stroke="#030303" stroke-width="25"/>
<path d="M0 725H1002" stroke="black" stroke-width="18"/>
<path d="M0 395H1002" stroke="black" stroke-width="18"/>
<path d="M292.864 665.952C326.44 665.952 353.364 692.753 353.364 725.452C353.364 758.151 326.44 784.952 292.864 784.952C259.287 784.952 232.364 758.151 232.364 725.452C232.364 692.753 259.287 665.952 292.864 665.952Z" fill="white" stroke="#030303" stroke-width="25"/>
<path d="M688 335.5C721.576 335.5 748.5 362.301 748.5 395C748.5 427.699 721.576 454.5 688 454.5C654.424 454.5 627.5 427.699 627.5 395C627.5 362.301 654.424 335.5 688 335.5Z" fill="white" stroke="#030303" stroke-width="25"/>
</svg>
