<svg xmlns="http://www.w3.org/2000/svg" viewBox="0 0 32 32"><defs><style>.cls-1{fill:#231f20;}</style></defs><g id="low_price" data-name="low price"><path class="cls-1" d="M21.9,13.9a1,1,0,0,0,1.33-.47A8,8,0,1,0,12,16.93s0,0,0,.07v5H10a1,1,0,0,0-.92.62,1,1,0,0,0,.21,1.09l6,6a1,1,0,0,0,1.42,0l6-6a1,1,0,0,0,.21-1.09A1,1,0,0,0,22,22H20V16.54a.69.69,0,0,0,0-.13.92.92,0,0,0-.08-.51,1,1,0,0,0-1.33-.48A5.82,5.82,0,0,1,16,16a6,6,0,1,1,6-6,5.82,5.82,0,0,1-.58,2.57A1,1,0,0,0,21.9,13.9ZM18,17.74V23a1.05,1.05,0,0,0,.29.71A1,1,0,0,0,19,24h.59L16,27.59,12.41,24H13a1,1,0,0,0,1-1V17.74A8.24,8.24,0,0,0,16,18,7.84,7.84,0,0,0,18,17.74Z"/><path class="cls-1" d="M15.39,13.46a.2.2,0,0,0,.14.06h.89a.18.18,0,0,0,.14-.06.2.2,0,0,0,.06-.14V12.8a3,3,0,0,0,.94-.31,1.78,1.78,0,0,0,.64-.57,1.39,1.39,0,0,0,.23-.8,1.48,1.48,0,0,0-.2-.81,1.43,1.43,0,0,0-.65-.51,4.22,4.22,0,0,0-1.18-.29l-.51-.09a.49.49,0,0,1-.24-.1.19.19,0,0,1-.07-.12.16.16,0,0,1,.09-.15A.45.45,0,0,1,15.94,9a.58.58,0,0,1,.25,0l.14.08a.38.38,0,0,0,.13.09.35.35,0,0,0,.16,0h1.47a.17.17,0,0,0,.16-.16,1.12,1.12,0,0,0-.2-.56A1.89,1.89,0,0,0,17.5,8a2.42,2.42,0,0,0-.88-.35V7.09A.2.2,0,0,0,16.56,7a.18.18,0,0,0-.14-.06h-.89a.21.21,0,0,0-.2.2v.52a2.06,2.06,0,0,0-1.19.57,1.53,1.53,0,0,0-.22,1.89,1.57,1.57,0,0,0,.66.52,3.89,3.89,0,0,0,1,.28l.58.09a.92.92,0,0,1,.29.11.16.16,0,0,1,.08.14q0,.1-.15.15a1.09,1.09,0,0,1-.4.06l-.22,0-.18-.06-.15-.09-.13-.09a.4.4,0,0,0-.18,0h-1.4a.18.18,0,0,0-.12.05.16.16,0,0,0,0,.12,1.24,1.24,0,0,0,.2.66,1.6,1.6,0,0,0,.58.54,2.63,2.63,0,0,0,1,.32v.51A.2.2,0,0,0,15.39,13.46Z"/></g></svg>