<svg width="368" height="344" viewBox="0 0 368 344" fill="none" xmlns="http://www.w3.org/2000/svg">
<path d="M295.5 333L222.5 293.5L289.5 243.5L295.5 333Z" fill="#010101" stroke="black" stroke-width="12"/>
<path d="M182 47.5C252.422 47.5 309.5 103.918 309.5 173.5C309.5 198.855 301.923 222.46 288.883 242.225C273.3 265.845 249.916 283.981 222.344 293.062C209.665 297.239 196.1 299.5 182 299.5C111.578 299.5 54.5 243.082 54.5 173.5C54.5 103.918 111.578 47.5 182 47.5Z" fill="black" stroke="black"/>
<path d="M25 168C24.5898 155.636 25.3367 143.968 27.1044 133C55.5056 -43.2133 347.414 -38.6383 338 168" stroke="black" stroke-width="12"/>
<path d="M33 133C39.6274 133 45 138.373 45 145V195C45 201.627 39.6274 207 33 207H22C15.3726 207 10 201.627 10 195V145C10 138.373 15.3726 133 22 133H33Z" fill="black"/>
<path d="M6 151C9.31371 151 12 153.686 12 157V184C12 187.314 9.31371 190 6 190V190C2.68629 190 0 187.314 0 184V157C0 153.686 2.68629 151 6 151V151Z" fill="black"/>
<path d="M362 151C365.314 151 368 153.686 368 157V184C368 187.314 365.314 190 362 190V190C358.686 190 356 187.314 356 184V157C356 153.686 358.686 151 362 151V151Z" fill="black"/>
<path d="M344 133C350.627 133 356 138.373 356 145V195C356 201.627 350.627 207 344 207H333C326.373 207 321 201.627 321 195V145C321 138.373 326.373 133 333 133H344Z" fill="black"/>
<ellipse cx="240" cy="180.5" rx="19" ry="19.5" fill="white"/>
<ellipse cx="121" cy="180.5" rx="19" ry="19.5" fill="white"/>
<ellipse cx="183" cy="180.5" rx="19" ry="19.5" fill="white"/>
</svg>
